<?xml version="1.0" encoding="UTF-8"?>
<svg id="Capa_2" data-name="Capa 2" xmlns="http://www.w3.org/2000/svg" viewBox="0 0 59.54 62.47">
  <defs>
    <style>
      .cls-1 {
        fill: #fff854;
      }

      .cls-2 {
        fill: #ceea7f;
      }

      .cls-3 {
        fill: #1c7607;
      }

      .cls-4 {
        fill: #0d2100;
      }

      .cls-5 {
        fill: #81ad27;
      }

      .cls-6 {
        fill: #002606;
      }

      .cls-7 {
        fill: #abcc5c;
      }

      .cls-8 {
        fill: #a3cf30;
      }
    </style>
  </defs>
  <g id="LOGO_BRINE_2D">
    <g>
      <g>
        <path class="cls-1" d="M59.51,33.41c-.44-9.37-4.27-12.17-4.27-12.17,0,0,1.65-2.38.85-8.17,0,0-.18-4.99-5.31-9C44.29-1,29.78-.84,18.92,1.88,8.06,4.59.83,9.58,2.07,11.65c1.24,2.07,4.94.35,4.94.35,0,0-1.65,1.85-2.47,4.96s-.69,5.82,1.44,6.01c2.13.19,3.02-1.99,3.02-1.99.21,3.54,2.76,5.44,5.24,5.06.88-.14,1.32-.4,1.35.11l.75,13.1c.03.43-.11.86-.37,1.2-1.24,1.59-5.41,7.04-3.82,12.82,1.91,6.97,7.78,7.49,11.77,6.53,3.99-.96,7.72-2.21,8.06-1.84,0,0,.55.1.67.81.12.7.62,4,3.74,3.7,3.12-.3,3.77-2.39,4.04-3.83.27-1.43.95-3.37,1.62-3.3.67.08.82.7,1.3,1.38s1.95,1.79,4.67.91c2.72-.88,4.83-3.72,4.69-7.55,0,0,1.05-.49,1.91-1.71.8-1.12.71-2.29.71-2.29,0,0,4.59-3.83,4.17-12.65Z"/>
        <path class="cls-1" d="M11.7,29.06c-.32-.83-.78-1.48-1.13-1.79-.18-.16-.47-.14-.61.06-.27.36-.66,1.11-.47,2.24.28,1.64,1.31,2.14,2.03,1.61.24-.18.64-.9.18-2.11Z"/>
        <path class="cls-1" d="M4.88,27.81c-.94,2.07-.6,3.48.76,3.87,0,0,1.48.58,2.19-1.02.7-1.61,1.13-5.37.72-5.62-.6-.36-2.73.7-3.67,2.77Z"/>
        <path class="cls-1" d="M2.82,14.62c-1.09-.67-2.33.74-2.65,1.56-.24.64-.26,1.23.12,1.68.23.27.57.43.92.46.37.04.9-.02,1.36-.45.81-.76,1.34-2.58.25-3.26Z"/>
      </g>
      <path class="cls-4" d="M21.32,57.7c-3.61,0-6.08-2.02-6.46-5.27-.4-3.39,0-8.09,4.13-11.19.02-.02.04-.03.05-.04.27-.24.56-.47.86-.71-.11-2.94-.72-13.59-1.14-17.73-.84.25-1.85.53-2.93.61-.12,0-.25.01-.37.01-2.55,0-3.98-1.87-4.41-2.98l-.02-.04-.02-.05c-.71-2.09-.47-6.48,2.25-9.73,1.26-1.73,3.3-3.3,6.07-4.64,3.29-1.6,9.15-2.67,14.6-2.67,4.7,0,11.19.77,15.43,4.46.39.33.75.68,1.08,1.06.02.02.08.09.08.09.04.05.08.09.11.13l.02.02c.47.56.87,1.16,1.19,1.77,2.19,4,1.57,8.4.43,11.78,1.98,1.6,3.23,3.77,3.8,6.6.12.48.2,1.02.27,1.8.01.12.02.25.03.37.53,6.92-.74,9.93-2.82,12.33-.24.28-.29.66-.35,1.06-.02.15-.04.31-.08.47-.36,1.67-1.5,2.74-2.51,3.32.17,1.49.41,4.07-1.24,5.49-.71.61-2.02,1.04-3.2,1.04h0c-.78,0-1.46-.18-2.02-.54-1.32-.85-1.93-2.34-2.24-3.36-.16.05-.38.15-.65.32-.65.43-1.04.96-1.49,1.57-.54.73-1.15,1.57-2.2,2.18-.64.38-1.35.57-2.12.57s-1.52-.19-2.29-.39c-.75-.2-1.53-.4-2.46-.45-.07,0-.14,0-.21,0-1.42,0-2.94.75-4.29,1.42-.65.32-1.27.63-1.85.84-.86.31-1.97.48-3.04.48ZM36.45,36.53c-.09.03-.18.06-.27.09.09-.03.18-.06.27-.09Z"/>
      <path class="cls-3" d="M47.96,52.13c1.22-1.05.45-4.14.51-4.7s.41-.73.41-.73c.64-.19,1.91-.94,2.21-2.33.11-.49.1-1.51.86-2.39,1.78-2.05,2.88-4.62,2.32-11.25-.27-3.23-.85-3.03-6.02-4.83,0,0,6.16-9.46.74-16.09-5.92-7.24-25.96-3.38-31.35-.76s-5.54,8.45-4.94,10.22c0,0,.75,1.9,2.85,1.75,2.1-.15,4.17-1.31,4.67-.87.5.45,1.51,19.7,1.5,20.61-.02,1.49-1.37,1.31-1.54,1.48-.3.3-4.35,2.59-3.54,9.55.49,4.19,5.24,3.78,6.93,3.18,1.69-.6,4.32-2.51,7.1-2.36,2.77.15,4.32,1.4,5.79.54,1.46-.86,1.8-2.51,3.61-3.71s3.15-.62,3.33-.09c.11.32.47,2.34,1.67,3.12.79.51,2.42.08,2.9-.34ZM31.5,26.93l-.6-6.95c-.05-.3,0-.84.85-1.01,3.85-.77,8.01-1.41,8.38,1.08.45,3-2.74,6.05-7.78,7.06-.68.14-.87.05-.86-.17ZM34,42.98c-.83.17-1.06.09-1.04-.13l-.5-6.17c0-.99.39-1.36,1.37-1.76,4.3-1.76,9.56-2.34,9.96.14.32,1.99-3.61,6.66-9.78,7.91Z"/>
      <g>
        <path class="cls-5" d="M22.38,51.1c-2.73,0-4.54-1.4-4.96-3.83-.65-3.8,4.28-6.7,5.9-7.65.21-.12.35-.21.41-.25.15-.27.33-2.63-.28-9.32-.63-6.88-1.93-13.63-2.34-14.23,0,0,0,0,0,0-.01,0-.05,0-.1,0-.3,0-.82.16-1.42.34-.82.25-1.84.56-2.88.63-.09,0-.17,0-.26,0-2.13,0-2.9-1.89-2.93-1.97-.64-1.9.65-5.09,6.39-7.88,2.49-1.21,7.9-2.51,13.9-2.51,4.64,0,10.97.77,14.8,4.44,5.2,4.99.89,11.26-.38,12.86,5.09,1.98,6.09,6.04,6.4,8.96.25,2.36-.79,4.75-1.55,6.49-.29.67-.55,1.25-.63,1.63-.32,1.46-1.32,2.38-2.11,2.62-.25.07-1.51.53-1.33,2.1.13,1.12.22,3.17-.69,4.2-.36.41-.83.63-1.41.64-1.93,0-2.41-2.19-2.62-3.12-.04-.16-.06-.29-.09-.36-.05-.13-.38-.38-.97-.38-.39,0-1.03.11-1.84.65-.88.58-1.4,1.28-1.9,1.96-.49.67-.96,1.31-1.73,1.76-.4.23-.83.35-1.31.35-.59,0-1.19-.16-1.89-.34-.79-.21-1.69-.44-2.77-.5-.1,0-.2,0-.29,0-1.79,0-3.57.88-4.99,1.59-.61.3-1.18.59-1.68.76-.68.24-1.58.39-2.43.39ZM34.43,38.15c.14,0,.35-.03.63-.09,5.89-1.2,9.8-5.71,9.51-7.52-.18-1.14-1.67-1.38-2.89-1.38-1.84,0-4.31.56-6.6,1.5-.93.38-1.16.66-1.15,1.44,0,0,.5,6.04.5,6.04ZM38.04,14.04c-1.48,0-3.32.33-5.09.68-.45.09-.64.29-.58.62l.59,6.89c.16,0,.29-.02.46-.05,4.71-.94,7.94-3.81,7.51-6.67-.1-.63-.5-1.47-2.88-1.47Z"/>
        <path class="cls-6" d="M33.8,4.77c5.53,0,11.21,1.13,14.56,4.35,5.81,5.58-.71,12.77-.71,12.77,5.17,1.8,6.29,5.62,6.63,8.84.34,3.22-1.87,6.63-2.17,8.01-.3,1.39-1.24,2.17-1.87,2.36-.64.19-1.76.86-1.57,2.47.19,1.61.19,4.42-1.76,4.46-.01,0-.03,0-.04,0-1.91,0-2.15-2.74-2.34-3.26-.11-.3-.58-.61-1.3-.61-.55,0-1.25.19-2.04.71-1.82,1.2-2.15,2.85-3.61,3.71-.37.22-.74.3-1.14.3-1.18,0-2.57-.73-4.65-.84-.1,0-.21,0-.31,0-2.66,0-5.16,1.79-6.78,2.37-.55.19-1.39.37-2.31.37-1.91,0-4.14-.74-4.62-3.55-.71-4.16,5.9-7.28,6.2-7.58.3-.3.43-3.01-.17-9.6s-1.95-14-2.45-14.45c-.08-.07-.2-.1-.35-.1-.81,0-2.55.84-4.32.97-.08,0-.16,0-.23,0-1.92,0-2.61-1.76-2.61-1.76-.6-1.77.82-4.82,6.22-7.44,2.71-1.32,8.15-2.48,13.75-2.48M32.96,22.59c.13,0,.3-.02.52-.07,5.04-1.01,8.23-4.06,7.78-7.06-.2-1.33-1.48-1.76-3.22-1.76-1.51,0-3.37.33-5.16.69-.85.17-.91.71-.85,1.01l.6,6.95c0,.15.08.23.34.23M34.43,38.5c.16,0,.39-.03.7-.09,6.17-1.25,10.1-5.92,9.78-7.91-.19-1.18-1.47-1.67-3.23-1.67-1.94,0-4.47.6-6.73,1.52-.98.4-1.37.77-1.37,1.76l.5,6.17c-.01.14.07.22.34.22M33.8,4.08c-5.19,0-10.97,1.05-14.05,2.55-5.94,2.89-7.25,6.26-6.57,8.28.05.12.9,2.23,3.27,2.23.09,0,.19,0,.28-.01,1.07-.08,2.11-.39,2.95-.65.46-.14.93-.28,1.21-.32.47,1.25,1.63,7.47,2.22,13.92.54,5.98.45,8.48.31,9.08-.07.04-.16.09-.27.16-1.67.98-6.75,3.96-6.06,8,.45,2.62,2.38,4.12,5.3,4.12.88,0,1.83-.15,2.54-.41.51-.18,1.1-.47,1.71-.78,1.39-.69,3.12-1.55,4.84-1.55.09,0,.18,0,.27,0,1.05.06,1.93.29,2.7.49.72.19,1.35.35,1.98.35.55,0,1.04-.13,1.49-.4.83-.49,1.34-1.18,1.83-1.85.48-.65.98-1.32,1.81-1.87.74-.49,1.31-.59,1.66-.59.43,0,.63.15.67.19,0,.03.03.14.06.28.23,1.02.75,3.4,2.91,3.4h.05c.67-.01,1.24-.27,1.66-.76.94-1.08.94-3.03.77-4.47-.15-1.27.79-1.64,1.08-1.73.89-.26,2.01-1.27,2.35-2.88.07-.34.32-.91.61-1.57.77-1.78,1.83-4.21,1.58-6.67-.31-2.93-1.29-6.97-6.19-9.07,1.54-2.1,5.13-8.1.07-12.96-3.91-3.75-10.33-4.54-15.04-4.54h0ZM33.27,21.86l-.56-6.52v-.03s0-.03,0-.03c-.01-.07-.03-.15.31-.22,1.75-.35,3.57-.67,5.02-.67,2.36,0,2.49.85,2.54,1.18.4,2.67-2.71,5.37-7.23,6.28-.03,0-.05,0-.07.01h0ZM34.27,32.08c0-.57.09-.75.94-1.09,2.25-.92,4.67-1.47,6.47-1.47.89,0,2.4.14,2.55,1.08.24,1.47-3.19,5.9-9.24,7.13-.1.02-.18.03-.25.05l-.46-5.69h0Z"/>
      </g>
      <path class="cls-7" d="M23.96,39.62c-.3.3-6.91,3.43-6.2,7.58.71,4.16,5.24,3.78,6.93,3.18,1.69-.6,4.32-2.51,7.1-2.36,2.77.15,4.32,1.4,5.79.54,1.46-.86,1.8-2.51,3.61-3.71s3.15-.62,3.33-.09c.19.52.43,3.3,2.38,3.26,1.95-.04,1.95-2.85,1.76-4.46-.19-1.61.94-2.28,1.57-2.47.64-.19,1.57-.97,1.87-2.36.3-1.39,2.51-4.79,2.17-8.01-.22-2.06-.76-4.37-2.47-6.23-6.26.61-11.62,1.93-16.55,3.28-4.07,1.11-8.13,1.09-11.62.64.06.54.11,1.07.16,1.61.6,6.59.47,9.31.17,9.6ZM34.95,30.35c4.3-1.76,9.56-2.34,9.96.14.32,1.99-3.61,6.66-9.78,7.91-.83.17-1.06.09-1.04-.13l-.5-6.17c0-.99.39-1.36,1.37-1.76Z"/>
      <path class="cls-8" d="M16.88,12.91s.07.9,1.29.66,2.82-1.88,3.79-2.68,2.58-1.41,2.41-2.06-2.76-.56-5.3.8-2.31,2.95-2.18,3.28Z"/>
      <path class="cls-8" d="M24.7,11.15s-.22.4,0,.86,2.03.09,2.41-.51c.37-.6-.1-1.13-.56-1.12-.35,0-1.54.04-1.85.77Z"/>
      <path class="cls-8" d="M41.28,6.2s-.36.24-.48.71,1.22.93,1.79.59.56-.98.27-1.17c-.22-.15-.98-.61-1.59-.13Z"/>
      <path class="cls-2" d="M21.22,47.66s.84.37,1.15-.41c.31-.79.66-1.76,1.45-2.55s1.3-1.93.25-2.37-2.51.5-3.03,1.72c-.6,1.4-.92,2.97.19,3.61Z"/>
      <path class="cls-2" d="M27.08,43.63c-.25.2-.58.61-.05,1.28s2.73.7,3.15.14c.25-.34-.36-1.3-1.25-1.64-.61-.24-1.48-.06-1.85.22Z"/>
      <path class="cls-8" d="M17.49,8.7s2.78-2.31,9.75-3.43c3.66-.59,7.27-.57,9.75-.37,2.25.18,3.53.51,3.53.51,0,0,.66.46-.13.99s-5.77-.74-12.44-.12c-3.91.37-6.88,1.77-8.9,2.65-1.01.44-1.39.52-1.6.44s-.25-.31.03-.68Z"/>
    </g>
  </g>
</svg>