<?xml version="1.0" encoding="UTF-8"?>
<svg id="Capa_2" data-name="Capa 2" xmlns="http://www.w3.org/2000/svg" viewBox="0 0 620.53 233.18">
  <defs>
    <style>
      .cls-1 {
        fill: #fff854;
      }

      .cls-2 {
        fill: #ceea7f;
      }

      .cls-3 {
        opacity: .61;
      }

      .cls-4 {
        fill: #1c7607;
      }

      .cls-5 {
        fill: #43b405;
      }

      .cls-6 {
        fill: #0d2100;
      }

      .cls-7 {
        fill: #49ac0a;
      }

      .cls-8 {
        fill: #77ba5a;
      }

      .cls-9 {
        fill: #81ad27;
      }

      .cls-10 {
        fill: #2f8804;
      }

      .cls-11 {
        fill: #196304;
      }

      .cls-12 {
        fill: #2a7103;
      }

      .cls-13 {
        fill: #1a6007;
      }

      .cls-14 {
        fill: #002606;
      }

      .cls-15 {
        fill: #abcc5c;
      }

      .cls-16 {
        fill: #43a80e;
      }

      .cls-17 {
        fill: #a3cf30;
      }
    </style>
  </defs>
  <g id="LOGO_BRINE_2D">
    <g>
      <path class="cls-8" d="M401.26,73.38l-8.27-31.93c-.54-2.08,1.17-4.06,3.31-3.83l42.74,4.05c1.4.15,2.73-.67,3.22-2l15.25-37.66c.91-2.48,4.32-2.74,5.59-.42l22.48,38.5c.9,1.65,3.06,2.11,4.55.97l8.93-5.22c2.03-1.53,4.93-.09,4.93,2.45v11.69c0,.67.73,1.09,1.31.75l47.33-27.32c.58-.34,1.31.08,1.31.75v22.39c0,.63.64,1.05,1.22.8l28.08-12.09c.55-.24,1.16.14,1.21.73l1.62,19.95c.03.41.35.74.76.79l13.34,1.65c.54.07.89.61.72,1.13l-7.25,23c-.09.29-.02.61.18.84l26.52,30.25c.34.39.27,1-.16,1.29l-30.52,20.88c-.31.21-.45.59-.35.95l5.96,22.09c.13.5-.19,1.01-.71,1.09l-33.28,5.25c-.37.06-.66.35-.72.72l-4.42,27.17c-.08.49-.55.81-1.03.71l-49.47-10.12c-.28-.06-.58.03-.79.23l-9.68,9.54c-.31.3-.79.33-1.13.08l-21.41-15.93c-.3-.23-.72-.23-1.03-.01l-27.9,19.92c-.38.27-.91.19-1.2-.18l-17.41-22.77c-.17-.23-.44-.35-.73-.34l-31.19,1.27c-.61.02-1.05-.57-.86-1.14l15-45.41c.11-.33.01-.69-.24-.92l-34.66-31.53c-.41-.37-.37-1.02.07-1.35l28.49-20.82c.29-.21.42-.58.33-.92Z"/>
      <path class="cls-1" d="M30.22,93.86s-2.97,7.32-10.13,6.69c-7.16-.63-7.6-9.73-4.84-20.16,2.77-10.44,8.3-16.65,8.3-16.65,0,0-12.44,5.79-16.59-1.16-4.15-6.95,20.11-23.68,56.57-32.8,36.45-9.12,85.18-9.67,106.97,7.37,17.22,13.47,17.82,30.21,17.82,30.21,0,0,5.43-.83,16.41-1.17,4.44-.14,7.92.03,10.52.27-3.17-5.63-4.99-12.12-4.99-19.04,0-21.44,16.83-41.51,38.27-41.51s39.38,14.75,39.38,41.51c0,6.77-1.74,11.84-4.78,17.38,4.93-.34,11.75-.99,17.85,3.51,0,0,8-5.18,21.66-3.83,13.66,1.35,18.1,12.45,23.8,11.01,5.7-1.44,5.07-9.47,2.01-12.5-1.9-1.89-9.3-5.24-10.89-13.85-1.59-8.62,5.78-13.77,10.81-13.09,5.03.68,5.78,4.9,5.61,9.21-.17,4.31.92,13.09,4.78,16.81,3.85,3.72,10.06-.25,14.16-2.2,4.11-1.94,17.26-7.35,32.85-1.61,15.59,5.74,20.96,17.91,24.31,29.4,3.35,11.49,1.29,34.51-3.3,35.59-4.59,1.08-2.68,1.52-6.08,1.2,0,0,3.11.61,4.84,7.73,4.53,18.63-6.81,40.13-16.09,47.31-12.23,9.46-21.37,5.49-24.85,5.66-3.48.17-8.9,6.22-19.73,1.69-8.79-3.68-10.1-13.09-10.1-13.09,0,0-.53,5.07-3.82,7.88-2.2,1.88-6.66,3.01-9.54,2.84-4.99-.28-5.4-2.1-8.65-1.85-.95.07-1.88.33-2.75.7-2.31.99-5.91,2.3-11.98-.46,0,0-.5,8.45-7.54,13.52-6.77,4.87-15.71,2.27-19.99,1.57-1.99-.33-5.48-.13-6.74,5.07-1.16,4.81.07,22.09-14.26,18.29-7.16-1.9-9.41-7.6-8.36-11.95,1.45-6.02,6.42-6.12,7.98-8.87,3.39-5.96-.38-14.49-2.37-18.4-3.1-6.12-6.22-6.49-6.22-6.49,0,0-4.68,5.57-12.89,5.57-7.4,0-11.76-4.02-11.76-4.02,0,0-3.62,1.81-10.29-.09-5.11-1.46-7.84-4.32-7.84-4.32,0,0-.36,4.49-4.97,8.54-4.61,4.05-9.68,3.25-10.43,3.34-.75.08-2.64,1.06-2.64,1.06-4.27,3.38-9.97,3.8-15.01,4.98-5.04,1.18-7.7,5.07-9.46,10.56-1.76,5.49-4.86,12.76-13.99,15.71-9.13,2.96-14.08-.76-15.67-3.04s-2.1-4.39-4.36-4.65c-2.26-.25-4.53,6.25-5.45,11.07-.92,4.82-3.1,11.83-13.58,12.84s-12.15-10.05-12.57-12.42c-.42-2.37-2.26-2.7-2.26-2.7-1.15-1.27-13.66,2.96-27.07,6.17-13.41,3.21-33.09,1.48-39.51-21.92-5.33-19.42,8.66-37.69,12.83-43.04.89-1.15,1.34-2.58,1.25-4.03l-2.51-43.96c-.1-1.73-1.58-.84-4.53-.38-8.32,1.3-16.87-5.08-17.59-16.97Z"/>
      <path class="cls-1" d="M35.47,112.68c-.62-.55-1.57-.46-2.06.21-.9,1.22-2.21,3.74-1.57,7.51.95,5.51,4.4,7.18,6.82,5.39.82-.61,2.16-3.03.59-7.09-1.07-2.78-2.62-4.98-3.79-6.02Z"/>
      <path class="cls-1" d="M18.95,127.49s4.98,1.95,7.34-3.43c2.36-5.39,3.79-18.04,2.42-18.86-2.02-1.21-9.16,2.36-12.32,9.29-3.17,6.94-2,11.7,2.56,13Z"/>
      <path class="cls-13" d="M463.68,52.87c-13.96-.89-28.65,3.23-39.79,15.55-8.33,9.21-9.29,22.75-9.29,22.75,0,0-.5,2.89,3.02,3.33,3.52.44,5.09-1.01,6.98.75,1.89,1.76,3.96,3.39,6.22,3.21,2.26-.19,3.83-2.2,6.66-1.13,2.83,1.07,8.8.11,13.39-8.57,2.85-5.39-3.51-9.03,5.25-9.52,4.49-.25,8.11,3.38,7.93,7.87-.1,2.48-.91,4.8-2.25,7.02-1.24,2.04-2.88,3.8-4.76,5.26-2.12,1.66-21.82,8.59-34.43,20.41-9.62,9.02-13.12,23.04-13.38,27.04,0,0-1.35,11.5,1.73,16.15,3.08,4.65,11.75,4.23,21.56,4.29.52,0,1.06,0,1.6,0,2.26,1.74,3.99,7.26,8.77,8.55,4.36,1.17,8.41-.51,9.68-1.8,2.05-2.08-1.53-5.24-1.53-5.24,0,0,5.64,5.01,10.27,2.35,1.27-.73,5.68-3.45,6.1-4.34,1.1-.08-1.78-1.3-.88-1.36,0,0,14.14-.75,16.22-1.51,2.07-.75,10.62-9.01,8.99-11.9-1.63-2.89-9.43-3.12-7.73-6.01,0,0,2.83-2.95,2.14-5.22-.69-2.26-2.58-3.58-7.6-3.58s-27.72,1.19-27.72,1.19c13.01-16.75,46.69-22.67,48.66-53.34,1.2-18.78-10.56-30.61-35.78-32.22Z"/>
      <path class="cls-1" d="M254.8,196.69c0,5.41-5.31,9.7-10.73,9.7-3.36,0-6.93.56-8.59-2.26-1.01-1.72-1.72-5.2-1.72-7.25,0-5.41,5.82-9.99,11.23-9.99s9.8,4.39,9.8,9.8Z"/>
      <path class="cls-1" d="M299.68,209.35c0,4.17-3.09,7.47-6.24,7.47-1.96,0-4.03.43-5-1.74-.59-1.33-1-4.01-1-5.59,0-4.17,3.39-7.7,6.54-7.7s5.71,3.38,5.71,7.55Z"/>
      <path class="cls-1" d="M374.3,47.56c0,4.35-3.82,8.55-8.17,8.55s-7.58-4.2-7.58-8.55,3.53-7.88,7.88-7.88,7.88,3.53,7.88,7.88Z"/>
      <path class="cls-1" d="M333.72,55.92c0,2.44-2.3,4.8-4.92,4.8s-4.56-2.36-4.56-4.8,2.12-4.42,4.74-4.42,4.74,1.98,4.74,4.42Z"/>
      <path class="cls-1" d="M308.87,54.6c-3.02,2.14-3.49,7.28-7.46,7.28s-6.92-3.57-6.92-7.28,3.22-6.71,7.19-6.71c4.17,0,12.23,3.13,7.19,6.71Z"/>
      <path class="cls-1" d="M.99,81.11c.77.91,1.9,1.44,3.08,1.55,1.26.12,3.02-.06,4.55-1.5,2.72-2.56,4.48-8.67.84-10.94-3.65-2.26-7.84,2.47-8.88,5.24-.81,2.15-.87,4.12.41,5.64Z"/>
      <path class="cls-6" d="M373.68,179.1c-.89,0-1.77-.1-2.62-.3-6.75-1.58-9.46-7.42-10.61-9.91-.12-.26-.23-.49-.33-.7-.38-.65-2.31-2.82-4.07-4.56-9.82-8.6-15.6-28.66-14.89-42.24-.02-3.82.63-43.41,33.94-52.7,3.02-.84,6.03-1.27,8.97-1.27,29.16,0,41.34,40.34,41.84,42.05.46,1.58,2.46,9.59-2.41,14.3-.19.18-.4.37-.62.57,1.54.91,2.69,2.03,3.46,3.35,3.42,5.93.89,17.49-3.51,22.45-3.3,3.72-5.31,4.96-7.41,6.09-.85.46-1.2.65-1.98,1.43-.41.44-1.34,2.05-2.03,3.23-1,1.72-2.13,3.68-3.49,5.52-2.97,4.03-7.13,7.94-9.66,9.11-1.86.86-3.87,1.29-5.98,1.29-2.38,0-4.53-.54-6.26-.98-.65-.16-1.27-.32-1.81-.43-.48.19-1.32.64-1.91.96-2.16,1.16-5.11,2.74-8.62,2.74Z"/>
      <path class="cls-6" d="M283.73,191.99c-2.56,0-5.21-1.19-7.08-3.18-1.26-1.34-2.34-2.49-6.25-20.39-1.94-8.88-3.8-18.49-4.48-22.64-1.56-9.55-4.55-40.1-4.83-43-.22-1.4-1.16-8-.58-13.03.05-.48.08-.99.11-1.51.17-2.93.43-7.36,3.9-11.2,1.28-1.42,3.56-3.12,7.15-3.12,1.75,0,3.33.4,4.72.76.71.18,1.38.35,1.92.43.8.11,1.55.17,2.23.17,2.25,0,3.41-.56,5.02-1.35,1.43-.69,3.2-1.56,5.48-1.76.3-.03.59-.04.88-.04,4.15,0,7.15,2.34,9.2,4.89,4.03-1.83,9.85-3.77,16.46-3.77,3.51,0,6.95.54,10.2,1.62,16.52,5.45,26.74,30.89,27.37,68.08,1.6,11.88-2.47,22.69-3.81,26.26-1.4,3.72-4.84,6.14-9.44,6.63-.37.04-.74.06-1.12.06-2.79,0-5.19-1.08-7.13-1.94-.92-.41-2.31-1.03-2.84-1.03-.69,0-1.67.44-2.71.9-1.56.7-3.51,1.56-5.84,1.56-.39,0-.79-.03-1.18-.08-3.66-.47-6.05-3.02-7.2-5.88-3.32,17.38-7.05,19.18-8.93,20.09-2.15,1.04-4.3,1.56-6.39,1.56-3.24,0-5.65-1.25-7.15-2.22-.02.01-.04.03-.05.04-.31.26-3.17,2.57-6.68,3.03-.25.03-.56.06-.94.06ZM310.67,150.91c-1.56-10.8-3.17-21.73-5.05-24.05,0,0,0,0,0,0-.27.47-1.37,2.88-.28,10.33l5.34,13.71Z"/>
      <path class="cls-6" d="M251.78,75.79c-4.37,0-7.32-1.87-8.88-3.01-.29,0-.59.01-.88.01-1.67,0-3.17-.16-4.58-.49-12.03-2.82-19.31-14.71-18.12-29.59,1.19-14.73,15.64-28.66,29.75-28.66.44,0,.88.01,1.31.04.21,0,.49-.01.81-.01,3.34,0,11.71.69,17.36,7.11,6.35,7.2,6.67,14.47,6.84,18.38.02.35.04.78.06,1.08,2.66,6.16,2.23,12.95-1.18,17.87-1.27,1.84-2.91,3.22-4.75,4.06-2.07,6.62-6.74,10.97-13.71,12.7-1.36.34-2.72.51-4.03.51Z"/>
      <path class="cls-6" d="M246.5,172.09c-4.63,0-8.68-2.17-11.11-3.47-1.06.5-2.79,1.27-5.17,1.27-.71,0-1.43-.07-2.16-.21-1.92-.37-8.25-2.2-8.8-10.23-.5-7.39.21-22.07.69-31.78.08-1.62.15-3.11.21-4.39.43-9.49,1.41-35.27,1.5-37.61-.07-5.71.85-15.48,7.62-18.24l.51-.21c1.9-.8,5.43-2.29,9.36-2.29,2.05,0,3.98.4,5.73,1.19,3.79,1.7,6.12,5.66,8.19,9.15.22.37.48.82.74,1.25.85-.1,1.78-.17,2.73-.17,2.04,0,3.76.33,5.27,1.02,4.16,1.9,6.45,5.41,6.23,9.49.41,4.49,2.26,26.12,1.05,35.5l-.04.32c-1.7,13.24-3.99,29.5-6.57,37.85-1.94,6.28-6.86,10.34-13.85,11.41-.69.11-1.4.16-2.12.16Z"/>
      <path class="cls-4" d="M261.51,86.87s2.35,25.18,1.13,34.65c-.96,7.43-3.59,28.07-6.38,37.08-.39,1.27-1.84,5.87-8.63,6.91-4.52.7-9.67-3.18-10.88-3.43-3.6-.75-4.3,1.83-7.46,1.22-3.1-.6-3.45-2.9-3.55-4.29-.56-8.2.5-26.53.91-35.44.46-10.04,1.51-37.84,1.51-37.84,0,0-.18-10.77,3.57-12.3,2.07-.84,6.71-3.1,10.48-1.4,3.77,1.7,6.96,11.68,9.41,11.36,1.53-.2,5.39-1.08,7.48-.13,2.89,1.32,2.44,3.24,2.41,3.6Z"/>
      <path class="cls-6" d="M188.31,179.93c-.77,0-1.54-.1-2.27-.31-7.71-2.15-9.46-10.67-9.5-13.91l-2.08-79.61c0-4.11,3.15-7.37,7.34-7.58.47-.02.93-.04,1.38-.04,3.05,0,5.48.53,7.26.92.79.17,1.6.35,2.02.37h0c1.03,0,3.27-.43,4.9-.74,1.51-.29,2.93-.56,4.13-.69.29-.03.56-.04.82-.04,1.81,0,3.47.61,4.78,1.72,4.97-2.52,10.74-3.52,15.28-3.52,4.24,0,6.54,1.64,7.73,3.02,3.92,4.56,1.96,9.5,1.01,11.87-.18.44-.44,1.09-.51,1.4-.07,2.57.84,17.39,1.15,19.55.15,1.07.56,4.79-.59,7.8-1.22,3.17-4.06,4.68-6.12,5.01l-.39.06h-.4c-3.29.1-7.81,4.58-9.99,6.74-2.17,2.15-2.44,7.41-2.39,12.78.03.92.31,10.92.31,21.79,0,4.31-3.54,7.81-7.88,7.81h-.82l-.79-.22h0s-.85-.2-1.86-.2c-.82,0-1.36.14-1.6.27-.84.46-1.77,1.22-2.68,1.94-2.11,1.7-4.74,3.81-8.26,3.81Z"/>
      <path class="cls-13" d="M582.5,130.57c-3.34,12.63-12.62,23.36-20.87,29.92-6.6,5.25-15.24,7.54-17.77,8.34-5.41,1.71-9.45,1.99-11.9,2.6-5.03,1.26,2.06,10.35-11.38,12.07-4.59.59-9.06-4.33-11.17-6.87-.75-.9-2.87-.7-3.53-.72-2.51-.06-5.15.69-5.97-1.57-.82-2.26-5.34-23.25-5.34-23.25-1.01-3.96-3.92-6.39-4.46-8.86-.5-2.27-.5-3.52.31-6.6.82-3.08.25-8.66-.19-11.5-1.57-10.13-7.72-40.27-7.72-40.27,0-7.2,5.13-11.77,6.15-12.51,6.22-3.96,12.71.97,19.96-.6,32.29-6.98,59.23-3.51,67.24,33.53,0,0,9.89,13.94,6.62,26.3ZM524.23,103.45c-2.5.54-3.4,1.23-3.14,2.45l5.16,29.34c.06.87.66,1.23,2.66.8,14.89-3.22,22.56-20.63,20.84-28.6-2.15-9.95-14.14-6.44-25.52-3.98Z"/>
      <g>
        <path class="cls-10" d="M523.84,172.96c-.43,0-.86-.03-1.28-.1-2.46-.39-4.7-2.48-6.67-4.32-1.22-1.14-2.74-2.56-3.45-2.58h-.29c-.42,0-.84.02-1.26.03-.43.02-.86.04-1.26.04h0c-.93,0-3.38,0-4.26-2.44-.83-2.31-5.2-22.55-5.39-23.41-.49-1.93-1.56-3.56-2.5-4.99-.86-1.3-1.67-2.53-1.96-3.86-.57-2.57-.5-4.05.33-7.17.74-2.81.21-8.24-.21-11.01-1.55-9.98-7.65-39.91-7.71-40.21-.36-1.68.49-3.9,1.9-4.93,6.44-4.11,17.74-8,25.14-9.6,9.17-1.98,17.04-2.95,24.07-2.95,24.57,0,39.17,12.23,44.61,37.4,3.86,17.85,1.87,32.77-5.91,44.33-7.52,11.17-20.28,18.99-37.93,23.23-1.22.29-2.91,2.4-4.54,4.43-2.9,3.61-6.5,8.11-11.4,8.11ZM533.99,123.85s.1,0,.18,0c.27,0,.62-.05,1.06-.14,8.46-1.83,13.4-8.97,15.59-13.06,3.14-5.87,4.61-12.79,3.65-17.23-1.02-4.73-3.87-6.83-9.22-6.83-3.7,0-8.21,1.01-12.57,1.98-.86.19-1.71.38-2.57.57-1.31.28-1.84.57-2.06.76-.11.09-.18.15-.1.49l6.04,33.39s0,.08,0,.09Z"/>
        <path class="cls-14" d="M539.02,56.67c21.18,0,37.5,9.02,43.43,36.45,7.74,35.79-8.71,57.9-42.94,66.13-4.03.97-8.44,12.5-15.66,12.5-.36,0-.72-.03-1.09-.09-3.92-.62-7.77-6.85-10.29-6.91-.11,0-.22,0-.32,0-.86,0-1.72.08-2.52.08-1.43,0-2.63-.25-3.13-1.64-.82-2.26-5.34-23.25-5.34-23.25-1.01-3.96-3.92-6.39-4.46-8.86-.5-2.27-.5-3.52.31-6.6s.25-8.66-.19-11.5c-1.57-10.13-7.72-40.27-7.72-40.27-.27-1.25.41-2.97,1.42-3.71,6.22-3.96,17.43-7.83,24.69-9.4,8.37-1.81,16.39-2.92,23.81-2.92M534.17,125.07c.35,0,.78-.05,1.31-.17,14.89-3.22,22.12-22.67,20.16-31.73-1.29-5.99-5.26-7.79-10.4-7.79-4.56,0-10.04,1.41-15.39,2.57-2.5.54-3.39,1.29-3.09,2.68l6.02,33.29c.06.73.41,1.15,1.39,1.15M539.02,54.26v2.41-2.41c-7.12,0-15.07.97-24.32,2.97-7.5,1.62-18.98,5.58-25.48,9.72l-.06.04-.06.05c-1.79,1.31-2.82,4.02-2.36,6.17.06.27,6.15,30.17,7.69,40.13.56,3.58.85,8.23.24,10.51-.88,3.31-.95,4.97-.34,7.74.34,1.55,1.21,2.87,2.13,4.26.93,1.41,1.88,2.87,2.34,4.63.51,2.37,4.58,21.19,5.42,23.52,1.17,3.24,4.35,3.24,5.4,3.24.42,0,.86-.02,1.31-.04.4-.02.8-.04,1.2-.04.06,0,.11,0,.17,0,.56.21,1.87,1.43,2.75,2.25,2.1,1.96,4.48,4.18,7.31,4.63.49.08.99.12,1.47.12,5.48,0,9.28-4.74,12.34-8.56,1.22-1.52,3.06-3.82,3.88-4.01,17.95-4.32,30.95-12.3,38.65-23.73,7.97-11.84,10.02-27.07,6.09-45.26-5.58-25.81-20.55-38.35-45.78-38.35h0ZM529.21,90.63c.23-.09.6-.2,1.15-.32.86-.19,1.72-.38,2.57-.57,4.3-.96,8.74-1.95,12.31-1.95,4.81,0,7.14,1.7,8.04,5.88,1.72,7.93-4.99,25.98-18.3,28.86l-5.77-31.91h0Z"/>
      </g>
      <path class="cls-4" d="M395.75,169.91c-3.88,1.85-7.63-.18-11.12-.69s-7.72,4.79-12.19,3.71-5.91-5.63-6.92-7.7-5.34-6.47-5.34-6.47c-7.79-6.9-13.65-25.64-12.88-38.94,0,0-.57-39.93,29.62-48.68,30.19-8.75,43.35,37.84,43.35,37.84,0,0,1.68,6.03-.84,8.55-2.51,2.51-11.06,8.21-11.06,8.21,0,0,11.02.17,12.84,3.44s.2,12.44-2.83,15.96c-4.97,5.78-5.84,4.06-9.18,7.54-1.72,1.8-3.6,6.25-6.1,9.74-2.85,3.99-6.3,6.97-7.35,7.48Z"/>
      <path class="cls-4" d="M302.32,183.96c-4.4,2.26-6.91.25-8.51-.92s-3.47-1.4-6.32,1.11c-.42.37-2.07,1.59-3.62,1.8-.37.05-1.72-.08-2.84-1.35-1.8-2.04-7.82-33.63-9.18-42.46-1.59-10.36-4.8-41.66-4.8-41.66,0,0-1.11-7.36-.58-12.34.59-5.51,2.94-8.7,5.29-8.99,4.48-.54,4.27,17.7,8.04,17.16,2.11-.3,6.46-2.59,9.72-2.47,1.08.04,3.1.98,3.98,2.47,1.23,2.09,2.1,4.61,2.1,4.61,3.55-2.71,7.86-5.34,13.79-5.82,9.22-.76,19.22,1.25,25.31,10.06,5.05,7.32,11.89,17.11,14.4,35.51,1.52,11.12-2.12,21.48-3.43,25.21-.72,2.03-2.76,2.74-4.43,2.93-3.25.37-6.79-3.18-10.52-3.14-3.73.04-6.45,2.93-8.88,2.6s-2.72-3.77-2.72-3.77l-1.82-11.84c-3.47-25.49-4.54-36.63-12.07-36.01-5.81.48-7.48,7.4-5.77,19.08l9.42,25.72s-3.05,20.73-6.56,22.54Z"/>
      <path class="cls-4" d="M230.9,100.94c.86.41,1.29,1.4.99,2.3-1.12,3.41-3.76,11.28-4.93,13.12-1.51,2.36-2.12,4.24-7.32,4.96s-6.98,3.52-6.98,3.52c-3.69,3.79-.82,10.35-.75,18.1,0,0-.94,14.44-2.7,21.68-1.13,4.65-4.87,3.14-5.22,3.14,0,0-4.1-.88-7.48,1.07-3.55,2.05-6.34,5.7-8.86,4.97-4.78-1.38-5.15-9.5-5.15-9.68l-2.08-62.91-.81-11.09c0-.93,4.84-8.41,5.76-8.46,4.63-.25,4.24,19.01,6.75,19.12s7.43-1.24,9.93-1.51c1.5-.16,1.89,1.48,1.89,2.75v2.78c0,.23,0,.46.12.46,0,0,.12-.12.23-.35,4.05-5.68,12.81-7.53,18.03-7.53,1.27,0,2.56.24,3.16.96l5.43,2.58Z"/>
      <path class="cls-6" d="M71.57,214.84c-12.11,0-20.42-6.77-21.69-17.68-1.33-11.39,0-27.15,13.87-37.58.07-.05.13-.1.18-.14.9-.8,1.87-1.59,2.89-2.39-.38-9.87-2.43-45.63-3.83-59.5-2.83.85-6.22,1.78-9.85,2.04-.42.03-.83.05-1.25.05-8.57,0-13.34-6.29-14.81-10l-.06-.15-.05-.15c-2.37-7.02-1.58-21.75,7.56-32.68,4.24-5.82,11.09-11.07,20.39-15.58,11.03-5.36,30.72-8.96,48.99-8.96,15.77,0,37.55,2.6,51.8,14.98,1.31,1.1,2.52,2.3,3.62,3.55.06.07.27.31.27.31.15.16.26.3.37.44l.06.07c1.58,1.89,2.93,3.88,3.99,5.94,7.35,13.42,5.28,28.19,1.43,39.54,6.65,5.37,10.84,12.67,12.76,22.15.41,1.6.68,3.43.9,6.04.04.42.07.83.1,1.25,1.79,23.24-2.49,33.35-9.45,41.38-.81.93-.99,2.21-1.18,3.56-.07.51-.15,1.04-.27,1.58-1.21,5.61-5.04,9.2-8.44,11.15.58,5,1.39,13.66-4.17,18.45-2.38,2.05-6.8,3.49-10.73,3.49h0c-2.63,0-4.91-.61-6.78-1.83-4.43-2.87-6.47-7.87-7.51-11.27-.55.18-1.27.5-2.17,1.09-2.18,1.44-3.49,3.22-5.01,5.29-1.82,2.46-3.88,5.26-7.39,7.33-2.14,1.26-4.54,1.91-7.12,1.91s-5.11-.64-7.7-1.32c-2.53-.66-5.14-1.35-8.25-1.52-.23-.01-.46-.02-.69-.02-4.78,0-9.88,2.53-14.39,4.77-2.19,1.08-4.25,2.11-6.21,2.81-2.9,1.03-6.62,1.62-10.19,1.62ZM122.35,143.76c-.3.09-.61.19-.91.29.31-.09.61-.19.91-.29Z"/>
      <path class="cls-4" d="M271.63,42.6c2.33,5,1.82,10.09-.45,13.36s-5.18,2.51-5.18,2.51c-1.04,8.05-5.24,11.48-10.86,12.87-5.62,1.39-8.37-1.69-9.57-2.44-.66-.41-1.88-.47-2.83-.43-1.43.05-2.87-.02-4.27-.34-10.32-2.42-15.42-12.94-14.46-24.92,1.04-12.86,14.52-25.72,26.8-24.73,0,0,9.29-.73,14.7,5.41,7.26,8.23,5.07,16.49,6.11,18.71Z"/>
      <g>
        <path class="cls-9" d="M192.52,156.37c-.34,0-.67-.05-.99-.14-5.7-1.65-5.96-9.6-5.96-9.68l-2.08-62.87v-.16c0-1.55,1.16-2.74,2.76-2.83.39-.02.76-.03,1.13-.03,2.54,0,4.59.47,6.24.84,1.07.24,2,.45,2.83.49.08,0,.17,0,.26,0,1.44,0,3.73-.46,5.76-.86,1.4-.28,2.73-.54,3.73-.65.11-.01.22-.02.33-.02,1.06,0,1.95.59,2.43,1.62.38.8.46,1.72.46,2.35v.1c4.92-4.63,12.83-5.94,17.17-5.94,1.34,0,3.13.24,4.09,1.39,1.99,2.41.99,5.02.18,7.13-.37.98-.73,1.9-.83,2.77-.1.84.28,1.92.68,3.08.35,1,.71,2.04.86,3.15.22,1.58.27,3.98-.31,5.55-.51,1.38-1.78,1.93-2.38,2.03h-.08s-.08.02-.08.02c-6.25.18-11.08,1.7-13.6,4.28-3.28,3.37-3.9,9-3.83,16.98,0,.08.31,10.8.31,22.5,0,1.72-1.34,3.06-3.06,3.06h-.17l-.16-.05s-1.4-.39-3.13-.39c-1.56,0-2.88.3-3.92.9-1.2.69-2.3,1.6-3.36,2.49-1.76,1.47-3.42,2.85-5.26,2.85Z"/>
        <path class="cls-14" d="M226.58,79.83c1.27,0,2.56.24,3.16.96,2.3,2.78-.55,5.88-.92,8.99-.23,1.93,1.22,4.19,1.54,6.54.19,1.35.25,3.61-.25,4.97-.33.89-1.17,1.21-1.44,1.26-5.65.16-11.34,1.47-14.43,4.65-3.69,3.79-4.24,10.07-4.18,17.83,0,0,.31,10.68.31,22.49,0,1.04-.81,1.85-1.85,1.85,0,0-1.52-.44-3.46-.44-1.43,0-3.09.24-4.52,1.07-3.25,1.87-5.69,5.18-8.02,5.18-.22,0-.44-.03-.66-.09-4.78-1.38-5.09-8.34-5.09-8.52l-2.08-62.91v-.12c0-.93.7-1.57,1.62-1.62.37-.02.72-.03,1.07-.03,4.02,0,6.7,1.22,9.01,1.33.1,0,.21,0,.32,0,2.57,0,7.22-1.26,9.62-1.52.07,0,.14-.01.2-.01,1.33,0,1.69,1.55,1.69,2.76v2.78c0,.23,0,.46.12.46,0,0,.12-.12.23-.35,4.05-5.68,12.81-7.53,18.03-7.53M226.58,77.42c-4.05,0-11.1,1.11-16.27,4.86-.65-2.05-2.23-2.99-3.79-2.99-.15,0-.3,0-.46.02-1.05.11-2.4.38-3.84.67-1.97.39-4.2.83-5.52.83-.07,0-.14,0-.2,0-.72-.03-1.6-.23-2.62-.46-1.71-.39-3.83-.87-6.5-.87-.39,0-.79.01-1.2.03-2.23.12-3.9,1.85-3.9,4.03v.2s2.09,62.91,2.09,62.91h0c.03.89.52,8.93,6.83,10.75.43.12.88.19,1.33.19,2.28,0,4.1-1.52,6.03-3.13,1.02-.85,2.08-1.73,3.19-2.37.86-.49,1.97-.74,3.32-.74,1.54,0,2.79.34,2.8.35l.32.09h.34c2.39,0,4.26-1.87,4.26-4.26,0-11.44-.29-21.94-.31-22.54-.06-7.45.51-13.04,3.49-16.1,2.26-2.33,6.92-3.76,12.77-3.92h.16s.16-.03.16-.03c1.2-.2,2.69-1.14,3.31-2.8.85-2.3.46-5.51.38-6.13-.17-1.23-.57-2.37-.92-3.38-.34-.97-.69-1.98-.62-2.54.09-.73.42-1.58.76-2.49.87-2.27,2.07-5.38-.38-8.33-1.01-1.21-2.69-1.83-5.02-1.83h0Z"/>
      </g>
      <path class="cls-17" d="M190.44,83.81c2.24.43,8.24,1.34,11.31.95s2.09,1.9.56,2.53c-1.42.58-3.76.84-7.77-.37,0,0-3.24-.72-5.68-.4s-2.7-2.19-1.31-2.7,2.89,0,2.89,0Z"/>
      <g>
        <path class="cls-9" d="M250.7,158.43c-3.04,0-5.01-1.35-6.45-2.33-.69-.47-1.29-.88-1.76-.98-.36-.08-.7-.11-1.02-.11-.88,0-1.51.3-2.24.64-.82.38-1.75.82-3.02.82-.37,0-.76-.04-1.16-.12-2.79-.54-4.31-2.35-4.52-5.4-.48-7.08.23-21.57.69-31.16.08-1.63.15-3.12.21-4.42.44-9.69,1.45-36.25,1.51-37.76-.11-1.81.6-5.49,4.17-6.94.63-.26,1.35-.39,2.14-.39,2.27,0,5.03,1.1,7.67,2.29,3.19,1.44,6.97,1.59,8.44,1.59.78,0,1.51-.04,2.1-.12.24-.03.55-.08.9-.14,1.13-.18,2.67-.43,4.16-.43,1.26,0,2.27.18,3.07.54,1.6.73,3.44,2.15,3.12,4.76-.04.34-2.91,27.6-4.12,36.97-.11.82-.23,1.81-.37,2.94-1.18,9.38-3.36,26.85-5.87,34.97-.66,2.13-2.09,3.62-4.02,4.19-1.27.38-2.49.57-3.62.57Z"/>
        <path class="cls-14" d="M239.24,71.5c1.91,0,4.33.9,7.18,2.19,2.83,1.27,6.33,1.7,8.94,1.7.87,0,1.64-.05,2.25-.13,1.01-.13,3.05-.56,4.91-.56.95,0,1.86.11,2.57.44,2.89,1.32,2.44,3.24,2.41,3.6,0,0-2.89,27.41-4.11,36.87-.96,7.43-3.41,28.69-6.2,37.71-.8,2.58-2.61,3.22-3.21,3.39-1.24.37-2.32.52-3.28.52-4.18,0-6.01-2.87-7.97-3.28-.47-.1-.88-.14-1.26-.14-2.25,0-3.2,1.46-5.26,1.46-.29,0-.6-.03-.93-.09-3.1-.6-3.45-2.9-3.55-4.29-.56-8.2.5-26.53.91-35.44.46-10.04,1.51-37.84,1.51-37.84,0,0-.34-4.27,3.41-5.8.5-.21,1.07-.3,1.68-.3M239.24,69.09c-.94,0-1.81.16-2.59.48-4.15,1.69-5.04,5.79-4.92,8.07-.08,2.03-1.06,28.12-1.5,37.69-.06,1.29-.13,2.78-.21,4.4-.47,9.62-1.18,24.16-.69,31.31.31,4.56,3.16,6.05,5.5,6.5.47.09.94.14,1.39.14,1.54,0,2.65-.52,3.53-.93.73-.34,1.15-.52,1.73-.52.23,0,.49.03.77.09.24.05.87.48,1.33.8,1.48,1.01,3.72,2.54,7.13,2.54,1.25,0,2.58-.21,3.96-.62,2.33-.69,4.05-2.47,4.83-4.99,2.54-8.22,4.74-25.75,5.92-35.17.14-1.13.27-2.12.37-2.95,1.21-9.38,4.08-36.65,4.11-36.93v-.03s0-.03,0-.03c.32-2.59-1.03-4.72-3.81-5.99-.96-.44-2.13-.65-3.57-.65-1.59,0-3.19.26-4.36.45-.33.05-.63.1-.86.13-.38.05-1.02.11-1.95.11-2.91,0-5.88-.55-7.95-1.48-2.77-1.25-5.67-2.4-8.17-2.4h0Z"/>
      </g>
      <g>
        <path class="cls-9" d="M255.73,61.97c-3.04,0-4.92-1.44-5.94-2.22-.17-.13-.31-.24-.44-.32-.01,0-.32-.19-1.36-.19-.12,0-.23,0-.34,0-.25,0-.5.01-.75.01-1.18,0-2.21-.11-3.17-.33-8.75-2.05-14.02-11-13.12-22.28.87-10.86,9.69-19.38,20.07-19.38.51,0,1.03.02,1.54.06,8.24.66,14.1,4.07,17.9,10.41,1.88,3.13,2.04,7.55,2.16,11.09l.04,1.1c.03.73.21,1.41.36,2.01.13.5.24.92.27,1.34.28,4.44-2.58,6.56-4.67,7.28-1.01,6.03-4.26,9.66-9.94,11.06-.9.22-1.78.34-2.62.34Z"/>
        <path class="cls-14" d="M250.7,18.48c.48,0,.96.02,1.45.06,5.58.45,12.44,2.28,16.96,9.83,1.92,3.2,1.89,8.21,2.03,11.63.06,1.44.58,2.63.63,3.37.34,5.36-4.55,6.24-4.55,6.24-.88,6.79-4.42,9.68-9.16,10.85-.85.21-1.63.3-2.33.3-3.2,0-4.91-1.84-5.73-2.35-.47-.3-1.28-.37-2-.37-.13,0-.26,0-.38,0-.23,0-.47.01-.7.01-.97,0-1.95-.08-2.9-.3-8.7-2.04-13-10.91-12.19-21.01.83-10.34,9.13-18.27,18.87-18.27M250.7,16.07h0c-11,0-20.35,9-21.27,20.48-.96,11.89,4.69,21.35,14.04,23.55,1.05.25,2.18.37,3.45.37.26,0,.53,0,.79-.01.1,0,.2,0,.3,0,.46,0,.7.04.8.06.08.06.16.12.26.2,1.05.8,3.22,2.47,6.67,2.47.94,0,1.92-.12,2.91-.37,5.99-1.48,9.5-5.21,10.72-11.36,2.36-1.05,5.1-3.52,4.81-8.23-.03-.53-.16-1.04-.3-1.57-.15-.57-.3-1.16-.32-1.75-.01-.35-.03-.71-.04-1.09-.12-3.49-.29-8.27-2.33-11.67-4.02-6.7-10.18-10.29-18.84-10.99-.54-.04-1.1-.07-1.64-.07h0Z"/>
      </g>
      <g>
        <path class="cls-9" d="M287.57,170.06c-.98,0-2.44-.46-3.59-1.77-2.36-2.67-8.77-38.54-9.46-43.07-1.55-10.09-4.66-40.31-4.8-41.68-.07-.43-.32-2.39.88-4.05.83-1.14,2.12-1.83,3.84-2.04.67-.08,1.3-.12,1.9-.12,1.44,0,2.49.23,3.42.44.82.18,1.52.33,2.43.33.42,0,.85-.03,1.32-.1.66-.1,1.73-.47,2.87-.87,2.04-.72,4.57-1.61,6.79-1.61h.28c1.56.06,3.94,1.3,4.98,3.07.67,1.13,1.23,2.37,1.61,3.31,3.21-2.29,7.49-4.65,13.13-5.11,1.22-.1,2.43-.15,3.6-.15,10.07,0,17.96,3.71,22.8,10.72,5.27,7.63,7.42,20.99,9.88,39.03l.19,1.41c1.44,10.55,2.4,17.52,1.04,21.36-.74,2.09-2.67,3.42-5.43,3.73-.2.02-.41.03-.62.03-1.77,0-3.51-.83-5.19-1.63-1.59-.76-3.24-1.54-4.79-1.54-1.72.02-3.2.72-4.64,1.4-1.33.63-2.58,1.22-3.91,1.22-.19,0-.38-.01-.57-.04-2.67-.37-3.62-3.23-3.76-4.86l-1.81-11.76-.55-4.07c-2.79-20.61-4.19-30.95-9.75-30.95-.16,0-.32,0-.48.02-1.41.12-2.5.68-3.32,1.72-1.42,1.79-2.81,6.01-1.35,15.98l5.55,39.85c.04.32.88,7.49-3.33,9.66-1.5.77-2.95,1.16-4.32,1.16-2.5,0-4.19-1.26-5.32-2.09l-.13-.09c-.57-.42-1.08-.61-1.6-.61-.88,0-1.96.56-3.2,1.66-.02.02-2.05,1.78-4.25,2.09-.08.01-.19.02-.32.02Z"/>
        <path class="cls-14" d="M293.15,76.72c.08,0,.16,0,.24,0,1.08.04,3.1.98,3.98,2.47,1.23,2.09,2.1,4.61,2.1,4.61,3.55-2.71,7.86-5.34,13.79-5.82,1.16-.09,2.33-.15,3.5-.15,8.17,0,16.49,2.5,21.81,10.2,5.05,7.32,7.17,20.11,9.68,38.51,1.52,11.12,2.6,18.48,1.29,22.21-.72,2.03-2.76,2.74-4.43,2.93-.16.02-.32.03-.48.03-3.1,0-6.45-3.17-9.97-3.17-.02,0-.04,0-.07,0-3.52.04-6.15,2.62-8.48,2.62-.14,0-.27,0-.4-.03-2.43-.34-2.72-3.77-2.72-3.77l-1.82-11.84c-3.38-24.82-4.49-36.04-11.49-36.04-.19,0-.38,0-.58.02-5.81.48-7.48,7.4-5.77,19.08l5.55,39.84s.82,6.61-2.69,8.42c-1.45.75-2.7,1.03-3.77,1.03-2.19,0-3.67-1.16-4.73-1.95-.7-.51-1.45-.85-2.32-.85-1.11,0-2.4.55-4,1.96-.42.37-2.07,1.59-3.62,1.8-.04,0-.09,0-.16,0-.51,0-1.69-.23-2.69-1.36-1.8-2.04-7.82-33.63-9.18-42.46-1.59-10.36-4.8-41.66-4.8-41.66,0,0-.82-4.17,3.66-4.72.66-.08,1.23-.11,1.76-.11,2.52,0,3.69.77,5.85.77.45,0,.94-.03,1.49-.11,2.05-.3,6.25-2.48,9.48-2.48M293.15,74.31c-2.42,0-5.06.93-7.19,1.68-1.03.36-2.09.74-2.64.82-.41.06-.78.09-1.14.09-.78,0-1.39-.14-2.17-.31-.99-.22-2.11-.46-3.68-.46-.65,0-1.32.04-2.05.13-2.57.31-3.95,1.55-4.67,2.53-1.43,1.97-1.2,4.27-1.1,4.91.21,2.09,3.25,31.56,4.8,41.71.67,4.37,2.51,14.5,4.44,23.89,3.68,17.95,4.7,19.11,5.31,19.79,1.78,2.02,3.89,2.18,4.49,2.18.17,0,.34-.01.49-.03,2.56-.36,4.79-2.3,4.88-2.38,1.34-1.18,2.08-1.35,2.41-1.35.17,0,.43.04.89.38l.13.09c1.18.87,3.14,2.33,6.04,2.33,1.56,0,3.2-.44,4.87-1.29,4.87-2.5,4.08-10.01,3.98-10.86l-5.55-39.87c-1.47-10.06.06-13.76,1.1-15.08.62-.78,1.4-1.18,2.48-1.27.13-.01.26-.02.38-.02,4.5,0,5.94,10.62,8.55,29.9l.55,4.05,1.82,11.81c.2,2,1.41,5.4,4.79,5.86.24.03.48.05.73.05,1.59,0,3.03-.68,4.42-1.34,1.38-.65,2.68-1.27,4.08-1.28h0c1.31,0,2.77.69,4.3,1.43,1.8.86,3.66,1.74,5.7,1.74.25,0,.5-.01.75-.04,3.2-.36,5.55-2.01,6.43-4.53,1.45-4.12.54-10.82-.98-21.93l-.19-1.41c-2.48-18.2-4.66-31.7-10.08-39.55-5.08-7.36-13.31-11.24-23.79-11.24-1.2,0-2.45.05-3.7.15-5.23.43-9.32,2.4-12.51,4.5-.32-.68-.69-1.41-1.09-2.1-1.3-2.21-4.06-3.59-5.97-3.66-.11,0-.21,0-.32,0h0Z"/>
      </g>
      <g>
        <path class="cls-9" d="M396.56,156.28c-1.77,0-3.46-.34-5.09-.66-.75-.15-1.48-.3-2.19-.4-.3-.04-.61-.06-.96-.06-1.12,0-2.39.23-3.73.47-1.58.28-3.22.58-4.95.58-1.04,0-2-.11-2.91-.33-4.47-1.07-6.25-5.07-7.32-7.46-.15-.32-.28-.62-.4-.88-.76-1.55-3.95-4.97-5.11-6.15-8.42-7.46-12.5-18.34-11.75-31.42,1.43-24.84,16.28-42.18,36.13-42.18.65,0,1.3.02,1.96.06,22.42,1.29,34.39,17.55,32.83,44.6-.26,4.53-2.73,5.68-4.59,5.9v.03s-.65.01-.75.01h-.46c-.22,0-.63-.04-1.7-.14-3.64-.35-13.29-1.27-37.26-2.75h0c-.37,0-.65.15-.85.4-.21.28-.28.62-.19.95,1.81,6.51,6.32,9.06,9.95,9.26h.18c.77,0,3.46-.15,5.88-2.1.38-.3.75-.61,1.11-.91,2.41-1.99,4.69-3.88,7.4-3.88.67,0,1.35.12,2,.36,1.93.71,3.33,1.81,4.55,2.78.94.74,1.75,1.38,2.52,1.59.41.11,1.17.2,1.96.29,3.1.35,7.79.88,9.47,4.42,2.18,4.59-1.32,9.88-2.1,10.73-2.34,2.56-4.94,4.67-7.74,6.29-1.39.8-2.61,1.66-3.63,2.54-1.16,1-2.24,2.16-3.28,3.28-1.55,1.67-2.89,3.11-4.25,3.75-1.44.69-2.99,1.02-4.74,1.02ZM384.43,98.62c3.09.02,5.2.04,6.23.06,0-2.84-1.15-5.66-4.42-5.85-.16,0-.33-.01-.49-.01-3.21,0-5.47,1.94-6.71,5.76l5.39.04Z"/>
        <path class="cls-14" d="M388.28,68.99c.63,0,1.26.02,1.89.05,25.33,1.46,32.94,21.72,31.7,43.33-.22,3.86-2.15,4.81-4.14,4.81-.13,0-.26,0-.39-.01,0,0-.02.01-.07.01-.78,0-8.4-1-38.89-2.89-.05,0-.09,0-.14,0-1.46,0-2.54,1.45-2.14,2.88,1.83,6.59,6.51,9.88,11.04,10.14,0,0,.09,0,.25,0,.87,0,3.91-.17,6.64-2.37,2.7-2.17,5.1-4.52,7.75-4.52.52,0,1.05.09,1.59.29,3.31,1.22,5.03,3.81,7.16,4.4s8.84.23,10.66,4.06c1.82,3.83-1.17,8.61-1.9,9.4-2.18,2.38-4.66,4.45-7.45,6.07-1.13.66-2.53,1.56-3.81,2.67-2.88,2.48-5.27,5.91-7.26,6.85-1.41.67-2.82.91-4.22.91-2.46,0-4.87-.72-7.1-1.05-.37-.05-.74-.08-1.13-.08-2.58,0-5.58,1.04-8.68,1.04-.87,0-1.75-.08-2.63-.29-4.47-1.08-5.91-5.63-6.92-7.7s-5.34-6.47-5.34-6.47c-7.79-6.9-12.17-17.2-11.4-30.5,1.37-23.76,15.59-41.04,34.92-41.04M391.37,99.9c.33,0,.46-.14.49-.64.22-3.85-1.44-7.4-5.55-7.64-.19-.01-.37-.02-.56-.02-3.62,0-6.57,2.11-8.03,7.16-.14.5.22,1,.74,1.01,5.46.05,12.33.09,12.83.12.03,0,.06,0,.08,0M388.28,66.57c-10.02,0-19.27,4.43-26.04,12.47-6.58,7.81-10.59,18.77-11.29,30.85-.77,13.43,3.43,24.62,12.15,32.39,1.68,1.72,4.26,4.61,4.83,5.78.12.25.25.53.39.84,1.08,2.42,3.09,6.93,8.14,8.14,1.01.24,2.05.36,3.19.36,1.83,0,3.6-.32,5.16-.59,1.29-.23,2.5-.45,3.52-.45.28,0,.55.02.78.05.67.1,1.38.24,2.13.39,1.61.32,3.43.69,5.33.69s3.65-.37,5.26-1.14c1.57-.75,2.98-2.26,4.61-4.02,1.02-1.1,2.07-2.23,3.18-3.18.95-.82,2.15-1.66,3.45-2.41,2.9-1.68,5.6-3.88,8.02-6.52,1.41-1.54,4.58-7.27,2.3-12.06-1.97-4.14-7.26-4.74-10.42-5.1-.72-.08-1.46-.17-1.78-.25-.53-.15-1.29-.74-2.09-1.38-1.22-.96-2.74-2.16-4.82-2.94,5.99.47,9.36.79,11.19.96,1.14.11,1.53.15,1.81.15.05,0,.11,0,.16,0,.1,0,.2,0,.3,0,1.85,0,6.18-.69,6.55-7.08.71-12.29-1.45-22.88-6.24-30.63-5.81-9.39-15.14-14.52-27.73-15.24-.68-.04-1.36-.06-2.03-.06h0ZM380.81,97.38c1.66-3.36,4.06-3.36,4.94-3.36.14,0,.28,0,.42.01,1.16.07,1.95.5,2.51,1.36.35.55.59,1.25.71,2.06-1.11-.01-2.72-.02-4.99-.04-1.16,0-2.38-.02-3.59-.03h0ZM387.4,124.9c-.06,0-.09,0-.11,0-3.17-.18-7.13-2.43-8.8-8.2,9.26.57,16.37,1.06,21.81,1.47-2.48.53-4.61,2.29-6.68,4-.36.3-.73.6-1.1.9-2.17,1.74-4.65,1.83-5.12,1.83h0Z"/>
      </g>
      <path class="cls-4" d="M161,196.12c4.09-3.52,1.51-13.89,1.7-15.78.19-1.89,1.38-2.45,1.38-2.45,2.14-.63,6.41-3.17,7.42-7.82.36-1.65.34-5.09,2.89-8.02,5.97-6.88,9.66-15.52,7.79-37.77-.91-10.83-2.85-10.18-20.2-16.22,0,0,20.68-31.76,2.49-54.02-19.86-24.3-87.13-11.34-105.23-2.54-18.1,8.8-18.6,28.36-16.59,34.31,0,0,2.51,6.37,9.55,5.87,7.04-.5,13.99-4.41,15.67-2.92,1.68,1.49,5.07,66.12,5.03,69.17-.07,5.01-4.6,4.38-5.17,4.96-1.01,1.01-14.61,8.7-11.88,32.07,1.64,14.06,17.6,12.7,23.25,10.68,5.66-2.01,14.52-8.42,23.82-7.92,9.3.5,14.52,4.71,19.42,1.82,4.9-2.89,6.03-8.42,12.13-12.44,6.1-4.02,10.56-2.07,11.19-.31.38,1.06,1.58,7.86,5.59,10.46,2.66,1.72,8.12.27,9.74-1.13ZM105.74,111.54l-2-23.35c-.17-1.02.03-2.84,2.87-3.41,12.93-2.59,26.87-4.72,28.13,3.61,1.52,10.06-9.21,20.31-26.11,23.69-2.27.45-2.91.18-2.89-.56ZM114.14,165.42c-2.79.57-3.55.31-3.48-.43l-1.69-20.7c-.02-3.33,1.3-4.56,4.59-5.91,14.45-5.91,32.09-7.84,33.42.48,1.07,6.67-12.11,22.35-32.84,26.56Z"/>
      <g>
        <path class="cls-9" d="M75.12,192.7c-9.2,0-15.28-4.71-16.68-12.91-2.19-12.8,14.37-22.53,19.82-25.72.52-.31,1.06-.62,1.29-.77.59-1.31,1.12-9.36-.88-31.3-2.08-22.89-6.42-45.42-7.83-47.71-.05-.02-.16-.04-.36-.04-1,0-2.74.52-4.74,1.13-2.76.84-6.19,1.88-9.67,2.12-.3.02-.59.03-.87.03-7.18,0-9.79-6.39-9.89-6.66-2.16-6.4,2.18-17.13,21.46-26.5,8.36-4.06,26.53-8.43,46.69-8.43,15.59,0,36.86,2.59,49.7,14.93,17.41,16.74,3.08,37.72-1.21,43.19,17.05,6.67,20.41,20.29,21.44,30.08.83,7.94-2.66,15.96-5.21,21.82-.98,2.26-1.83,4.21-2.1,5.46-1.07,4.93-4.44,8.03-7.12,8.82-.85.25-5.03,1.75-4.42,7,.44,3.79.72,10.66-2.33,14.15-1.22,1.39-2.82,2.12-4.76,2.16h-.15c-6.35,0-7.99-7.38-8.69-10.53-.11-.51-.22-1-.3-1.21-.16-.44-1.26-1.25-3.22-1.25-1.32,0-3.46.38-6.17,2.17-2.96,1.96-4.69,4.3-6.36,6.56-1.66,2.26-3.24,4.39-5.82,5.92-1.34.79-2.79,1.17-4.44,1.17-1.97,0-4.01-.53-6.36-1.15-2.65-.7-5.66-1.48-9.3-1.68-.33-.02-.65-.03-.98-.03-6.02,0-11.96,2.95-16.74,5.32-2.04,1.01-3.97,1.97-5.63,2.56-2.28.81-5.33,1.29-8.16,1.29ZM139.91,119.12c-6.17,0-14.44,1.88-22.13,5.02-3.1,1.27-3.86,2.21-3.84,4.78l1.65,20.24c.46,0,1.16-.1,2.07-.29,19.75-4.01,32.86-19.14,31.89-25.18-.61-3.78-5.58-4.58-9.65-4.58ZM127.7,68.32c-4.98,0-11.15,1.1-17.08,2.28-1.47.29-2.1.96-1.92,2.02v.1s1.98,23.02,1.98,23.02c.35,0,.85-.07,1.48-.2,15.79-3.16,26.6-12.76,25.16-22.33-.32-2.1-1.66-4.9-9.62-4.9Z"/>
        <path class="cls-14" d="M113.45,37.15c18.56,0,37.62,3.79,48.87,14.6,19.49,18.73-2.39,42.86-2.39,42.86,17.35,6.03,21.12,18.86,22.25,29.67,1.13,10.81-6.29,22.25-7.29,26.9-1.01,4.65-4.15,7.29-6.29,7.92-2.14.63-5.91,2.89-5.28,8.3.63,5.41.63,14.83-5.91,14.96-.04,0-.09,0-.13,0-6.42,0-7.23-9.19-7.85-10.94-.36-1-1.94-2.05-4.35-2.05-1.85,0-4.19.62-6.83,2.37-6.1,4.02-7.23,9.55-12.13,12.44-1.23.73-2.49,1.01-3.82,1.01-3.97,0-8.64-2.45-15.6-2.83-.35-.02-.7-.03-1.04-.03-8.92,0-17.33,6.01-22.78,7.95-1.84.65-4.68,1.23-7.76,1.23-6.42,0-13.88-2.48-15.5-11.91-2.39-13.95,19.8-24.45,20.8-25.45,1.01-1.01,1.45-10.12-.57-32.24-2.01-22.12-6.54-47.01-8.21-48.51-.27-.24-.67-.34-1.18-.34-2.71,0-8.57,2.83-14.49,3.26-.27.02-.53.03-.78.03-6.44,0-8.77-5.89-8.77-5.89-2.01-5.95,2.77-16.17,20.87-24.97,9.11-4.43,27.37-8.31,46.16-8.31M110.65,96.95c.43,0,1-.07,1.75-.22,16.91-3.38,27.63-13.64,26.11-23.69-.67-4.46-4.98-5.92-10.82-5.92-5.07,0-11.3,1.1-17.31,2.31-2.84.57-3.04,2.39-2.87,3.41l2,23.35c-.01.49.26.78,1.13.78M115.57,150.37c.54,0,1.3-.1,2.34-.31,20.73-4.21,33.91-19.88,32.84-26.56-.63-3.95-4.94-5.59-10.84-5.59-6.53,0-15,2.01-22.59,5.11-3.29,1.35-4.61,2.58-4.59,5.91l1.69,20.7c-.04.46.24.74,1.15.74M113.45,34.74c-17.44,0-36.86,3.52-47.22,8.56-19.99,9.72-24.4,21.11-22.1,27.91l.02.06.02.06c.12.3,3.02,7.42,11.01,7.42.31,0,.64-.01.95-.03,3.61-.26,7.11-1.32,9.93-2.17,1.49-.45,3.03-.92,3.96-1.04,1.58,4.34,5.47,25.13,7.42,46.62,1.81,19.93,1.52,28.33,1.05,30.41-.25.15-.57.34-.87.51-5.62,3.3-22.73,13.34-20.39,26.96,1.51,8.84,8.03,13.91,17.87,13.91,2.96,0,6.16-.51,8.57-1.37,1.73-.62,3.69-1.59,5.77-2.62,4.66-2.31,10.47-5.19,16.2-5.19.3,0,.61,0,.91.02,3.52.19,6.47.96,9.06,1.64,2.43.64,4.54,1.19,6.67,1.19,1.87,0,3.52-.44,5.05-1.34,2.8-1.65,4.52-3.98,6.18-6.24,1.61-2.18,3.27-4.43,6.05-6.27,2.47-1.63,4.36-1.97,5.51-1.97,1.25,0,1.92.39,2.12.56.06.22.15.62.22.95.7,3.14,2.55,11.47,9.87,11.47h.18c2.26-.05,4.21-.93,5.64-2.57,3.19-3.65,3.18-10.21,2.62-15.08-.49-4.18,2.61-5.42,3.56-5.7,3.01-.89,6.79-4.31,7.96-9.72.25-1.14,1.07-3.04,2.03-5.24,2.6-5.98,6.17-14.17,5.3-22.42-1.03-9.82-4.34-23.38-20.71-30.47,1.97-2.66,4.87-7.11,6.83-12.53,4.32-11.92,2-22.65-6.71-31.02-13.13-12.62-34.73-15.27-50.54-15.27h0ZM111.78,94.39l-1.86-21.77v-.1s-.03-.1-.03-.1c-.03-.17-.07-.43.96-.64,5.87-1.17,11.97-2.26,16.84-2.26,7.85,0,8.27,2.81,8.43,3.87,1.35,8.93-9.06,17.94-24.2,20.97-.05.01-.1.02-.15.03h0ZM115.14,128.83c0-1.87.31-2.44,3.09-3.57,7.55-3.09,15.65-4.93,21.67-4.93,2.94,0,7.96.46,8.46,3.56.81,5.06-11.49,19.86-30.94,23.81-.28.06-.52.1-.73.14l-1.55-19h0Z"/>
      </g>
      <g class="cls-3">
        <path class="cls-15" d="M191.86,155.08c2.53.73,5.12-3.04,8.67-5.09,3.38-1.95,7.98-.63,7.98-.63,1.04,0,1.85-.81,1.85-1.85,0-11.82-.31-22.49-.31-22.49-.06-7.75.49-14.03,4.18-17.83,1.89-1.94,4.74-3.18,7.97-3.89-13.31-1.21-25.53-1.37-36.89-.78l1.46,44.05c0,.18.31,7.14,5.09,8.52Z"/>
        <path class="cls-15" d="M231.72,150.88c.09,1.39.45,3.7,3.55,4.29,3.16.61,3.85-1.98,7.46-1.22,2.4.5,4.62,4.73,11.25,2.77.6-.18,2.41-.81,3.21-3.39,2.79-9.02,5.24-30.28,6.2-37.71.19-1.48.42-3.39.68-5.57h0c-10.94-2.48-21.23-4.29-30.97-5.54-.18,4.34-.34,8.27-.46,10.95-.41,8.9-1.47,27.24-.91,35.44Z"/>
        <path class="cls-15" d="M321.15,135.53l1.82,11.84s.29,3.44,2.72,3.77,5.15-2.56,8.88-2.6c3.73-.04,7.27,3.51,10.52,3.14,1.67-.19,3.71-.9,4.43-2.93,1.32-3.72.23-11.09-1.29-22.21-.28-2.09-.56-4.09-.84-6.03-9.25-.33-18.83-.93-28.6-1.86.73,4.71,1.46,10.31,2.36,16.88Z"/>
        <path class="cls-15" d="M284.88,167.49c1.12,1.27,2.47,1.4,2.84,1.35,1.55-.22,3.2-1.43,3.62-1.8,2.85-2.51,4.72-2.28,6.32-1.11,1.59,1.17,4.11,3.18,8.51.92,3.51-1.81,2.69-8.42,2.69-8.42l-5.55-39.84c-.08-.58-.16-1.14-.23-1.69-9.63-1.24-19.35-2.81-29.03-4.74.61,5.19,1.2,9.9,1.65,12.87,1.35,8.82,7.37,40.41,9.18,42.46Z"/>
        <path class="cls-15" d="M364.76,140.53s4.32,4.39,5.34,6.47c1.01,2.07,2.45,6.63,6.92,7.7s8.94-1.19,12.44-.67c3.5.52,7.44,2,11.32.15,1.98-.95,4.37-4.37,7.26-6.85,1.28-1.11,2.68-2.01,3.81-2.67,2.79-1.62,5.28-3.69,7.45-6.07.73-.8,3.72-5.57,1.9-9.4-1.82-3.83-8.53-3.48-10.66-4.06-2.14-.59-3.85-3.18-7.17-4.4-3.31-1.22-6.12,1.63-9.34,4.23-3.23,2.6-6.88,2.36-6.88,2.36-3.66-.21-7.41-2.4-9.68-6.7-7.46.23-15.34.27-23.53.09,1.46,8.24,5.26,14.91,10.82,19.83Z"/>
        <path class="cls-15" d="M80.43,154.13c-1.01,1.01-23.19,11.5-20.8,25.45,2.39,13.95,17.6,12.7,23.25,10.68,5.66-2.01,14.52-8.42,23.82-7.92,9.3.5,14.52,4.71,19.42,1.82,4.9-2.89,6.03-8.42,12.13-12.44s10.56-2.07,11.19-.31c.63,1.76,1.45,11.06,7.98,10.94,6.54-.13,6.54-9.55,5.91-14.96-.63-5.41,3.14-7.67,5.28-8.3,2.14-.63,5.28-3.27,6.29-7.92,1.01-4.65,8.42-16.09,7.29-26.9-.72-6.92-2.54-14.66-8.29-20.92-21.01,2.06-39.01,6.5-55.56,11-13.66,3.72-27.3,3.66-39.01,2.14.19,1.8.37,3.61.53,5.39,2.01,22.12,1.57,31.24.57,32.24ZM117.32,123.02c14.45-5.91,32.09-7.84,33.42.48,1.07,6.67-12.11,22.35-32.84,26.56-2.79.57-3.55.31-3.48-.43l-1.69-20.7c-.02-3.33,1.3-4.56,4.59-5.91Z"/>
      </g>
      <path class="cls-17" d="M55.75,66.29s.25,3.02,4.32,2.22,9.47-6.33,12.74-9.01,8.67-4.73,8.09-6.91-9.26-1.89-17.81,2.68c-8.55,4.57-7.75,9.89-7.33,11.02Z"/>
      <path class="cls-17" d="M82.92,58.58s-.75,1.34,0,2.89,6.83.29,8.09-1.72-.34-3.78-1.89-3.77c-1.18,0-5.15.13-6.2,2.6Z"/>
      <path class="cls-17" d="M138.57,41.95s-1.22.8-1.61,2.4c-.39,1.6,4.11,3.11,6.02,1.97,1.91-1.14,1.9-3.28.92-3.92-.74-.49-3.3-2.06-5.33-.45Z"/>
      <g>
        <path class="cls-10" d="M521.85,112.91s3.21,5.66.31,6.54c-1.97.6-4.43-1.56-5.87-3.08-.67-.71-1.23-1.39-1.23-1.39,0,0-1.89,3.58-5.97,2.89-4.09-.69-5.15-6.6-5.15-6.6"/>
        <path class="cls-11" d="M521.85,112.91c1.87,1.93,3.97,7.19-.38,7.5-3.1-.11-5.28-2.7-6.97-4.97,0,0,1.2-.12,1.2-.12-2.1,4.74-8.96,4.84-10.94,0-.59-1.3-.89-2.68-.83-4.06,1.09,2.14,2.38,4.66,4.62,5.48,2.16.71,4.51-.33,5.86-2.11,0,0,.58-.73.58-.73,1.12,1.1,2.28,2.28,3.46,3.24,5.22,3.93,4.6-.33,3.38-4.24h0Z"/>
      </g>
      <path class="cls-2" d="M71.23,181.14s2.81,1.26,3.85-1.38c1.05-2.64,2.22-5.91,4.86-8.55,2.64-2.64,4.36-6.49.84-7.96-3.52-1.47-8.42,1.68-10.18,5.78-2.01,4.68-3.1,9.97.63,12.11Z"/>
      <path class="cls-2" d="M90.91,167.58c-.85.66-1.95,2.05-.18,4.31s9.17,2.36,10.58.45c.84-1.13-1.22-4.35-4.19-5.51-2.06-.8-4.98-.22-6.21.75Z"/>
      <path class="cls-2" d="M236.07,143.86c-.59,2.07.17,5.26,2.28,5.26,1.75,0,2.93-3.76,1.47-6.08-.15-.23-.72-.85-1.53-.86s-1.92.62-2.22,1.68Z"/>
      <path class="cls-2" d="M199.26,130.32c-.59,1.67.17,4.23,2.28,4.23,1.75,0,2.93-3.03,1.47-4.89-.15-.19-.72-.68-1.53-.69s-1.92.5-2.22,1.35Z"/>
      <path class="cls-2" d="M192.62,140.46c1.99,1.99,6.77,3.12,8.08.77,1.22-2.19-2.6-6.25-6.48-6.01-.39.02-1.55.32-2.13,1.32s-.58,2.83.52,3.93Z"/>
      <path class="cls-2" d="M244.22,144c-.59,1.59.17,4.03,2.28,4.03,1.75,0,2.93-2.88,1.47-4.65-.15-.18-.72-.65-1.53-.66s-1.92.47-2.22,1.28Z"/>
      <path class="cls-17" d="M336.27,119.08c-.86,2.33.25,5.91,3.35,5.91,2.57,0,4.3-4.23,2.15-6.83-.22-.26-1.06-.96-2.24-.97s-2.82.69-3.26,1.88Z"/>
      <path class="cls-2" d="M364.93,130.98c-.86,2.33,2.09,8.17,5.19,8.17,2.57,0,2.45-6.49.31-9.09-.22-.26-1.06-.96-2.24-.97s-2.82.69-3.26,1.88Z"/>
      <path class="cls-2" d="M375.31,140.64c-.86,1.83,2.09,6.43,5.19,6.43,2.57,0,2.45-5.11.31-7.15-.22-.21-1.06-.75-2.24-.76s-2.82.55-3.26,1.48Z"/>
      <path class="cls-2" d="M397.43,139.9c.86,1.83-1.56,5.45-4.66,5.45-2.57,0-2.98-4.12-.84-6.17.22-.21,1.06-.75,2.24-.76s2.82.55,3.26,1.48Z"/>
      <path class="cls-17" d="M321.92,82.82c-1.5.65-1.19,2.98.42,4.95s4.96,4.13,5.78,5.72c1.63,3.14,2.97,13.14,8.4,14.3,4.77,1.02,3.6-10.61-3.87-17.44-.61-.56-3.69-4.66-6.22-6.6-1.75-1.34-3.27-1.46-4.5-.92Z"/>
      <g>
        <path class="cls-17" d="M260.77,29.67c-.43,1.16,1.4,2.3,1.95,3.48s.14,3.02,1.7,3.02c2.57,0,4.3-4.23,2.15-6.83-.22-.26-1.35-1.55-2.54-1.56s-2.82.69-3.26,1.88Z"/>
        <path class="cls-17" d="M245.21,21.23c-1.7.48-3.24,1.45-4.28,2.88-.67.92-1.11,1.99-.5,2.84,1.34,1.89,6.33-1.17,9.6-1.55s6.87,2.56,8.59,2.16,2.69-2.81-.13-4.8c-3.77-2.67-8.27-2.94-13.28-1.53Z"/>
      </g>
      <path class="cls-12" d="M510.08,77.97c0-6.34,0-10.16-2.65-16.25-6.86,1.91-11.58,3.98-16.65,7.21-1.02.74-1.69,2.46-1.42,3.71,0,0,3.46,18.32,5.86,31.2,8.39-3.85,14.86-12.15,14.86-25.87Z"/>
      <g>
        <g>
          <path class="cls-10" d="M450.24,173.39c-.14,0-.28,0-.42-.02-3.87-.34-6.29-5.81-8.43-10.63-.72-1.62-1.59-3.59-2.18-4.36,0,0-2.82,0-3.66-.01-9.04-.02-16.84-.04-20-4.83-3.29-4.96-1.98-16.47-1.93-16.96.5-7.9,4.64-15.07,12.97-22.38-1.99-1.13-3-3.02-2.82-5.41.45-6.09,9.92-10.08,23.99-14.2,6.45-1.89,10.41-3.38,14.11-6.27,1.86-1.45,3.36-3.12,4.47-4.94,1.31-2.16,1.99-4.27,2.08-6.45.07-1.78-.55-3.46-1.76-4.72-1.19-1.23-2.79-1.91-4.52-1.91-.12,0-.25,0-.37.01-6.37.36-8.05,5.97-9.67,11.4-.36,1.2-.7,2.33-1.08,3.37-.67,1.82-1.88,4.25-4.59,4.25-1.14,0-2.25-.43-3.44-.88l-.35-.13c-.42-.16-.81-.23-1.19-.23-.76,0-1.45.29-2.25.64-.78.34-1.67.72-2.7.8-.15.01-.31.02-.46.02-2.54,0-4.71-1.7-6.69-3.54-.52-.48-.93-.57-1.46-.57-.34,0-.73.04-1.18.09-.6.07-1.29.14-2.1.14-.53,0-1.04-.03-1.57-.1-1.49-.19-2.61-.77-3.33-1.73-.9-1.21-.79-2.57-.75-2.93.08-1.03,1.24-14.2,9.59-23.43,12.01-13.28,26.77-16.07,37.04-16.07,1.23,0,2.48.04,3.72.12,12.66.81,22.26,4.17,28.54,10,6.18,5.73,9,13.64,8.37,23.51-1.32,20.6-16.72,30.49-30.31,39.22-6.38,4.1-12.45,7.99-16.82,12.7,6.25-.32,20.99-1.05,24.99-1.05,5.12,0,7.82,1.37,8.76,4.43.81,2.66-1.7,5.62-2.32,6.29-.78,1.36-.55,1.67.45,3.04.38.52.86,1.17,1.32,1.99,1.87,3.3.95,5.76-.32,7.93-.3.51-.45,1.11-.61,1.75-.33,1.3-.73,2.92-2.66,3.62-2.13.78-14.17,1.45-16.56,1.58l-2.19.16c-.11.4-.25.91-.38,1.39-1.4,5.16-2.22,7.57-3.36,8.23-.74.43-1.52.64-2.33.64-2.69,0-4.99-2.42-6.5-4.57-.71,4.38-2.54,11-7.18,11Z"/>
          <path class="cls-14" d="M465.63,42.62c1.22,0,2.43.04,3.65.12,25.22,1.62,36.99,13.45,35.78,32.22-1.96,30.67-35.64,36.59-48.66,53.34,0,0,22.69-1.19,27.72-1.19s6.91,1.32,7.6,3.58c.69,2.26-2.14,5.22-2.14,5.22-1.7,2.89.06,3.46,1.7,6.35,1.63,2.89.75,4.9-.31,6.73-1.07,1.82-.57,4.09-2.64,4.84-2.07.75-16.22,1.51-16.22,1.51-.9.07-1.92.14-3.02.23-.42.89-2.19,8.99-3.45,9.72-.58.33-1.16.48-1.72.48-3.93,0-7.28-7.08-7.28-7.08,0,0-.81,13.51-6.39,13.51-.1,0-.21,0-.31-.01-4.93-.43-7.95-13.26-10.21-15-.3,0-.6,0-.89,0-.24,0-.48,0-.71,0-9.81-.07-18.48.36-21.56-4.29-3.08-4.65-1.73-16.15-1.73-16.15.59-9.25,6.42-16.55,14.08-22.9-2.38-.61-4.13-2.16-3.92-4.94.44-5.91,12.37-9.98,23.13-13.13,6.8-1.99,10.78-3.56,14.52-6.48,1.88-1.47,3.52-3.23,4.76-5.26,1.35-2.22,2.16-4.54,2.25-7.02.17-4.35-3.2-7.88-7.49-7.88-.14,0-.29,0-.44.01-8.76.49-9.71,9.84-11.82,15.56-.98,2.66-2.13,3.46-3.46,3.46-1.01,0-2.13-.47-3.36-.93-.59-.22-1.12-.31-1.62-.31-1.89,0-3.25,1.29-5.04,1.44-.12.01-.24.01-.36.01-2.12,0-4.08-1.55-5.86-3.22-.76-.71-1.47-.9-2.28-.9-.9,0-1.93.23-3.28.23-.44,0-.91-.02-1.42-.09-3.52-.44-3.02-3.33-3.02-3.33,0,0,.96-13.54,9.29-22.75,10.18-11.25,23.31-15.67,36.15-15.67M465.63,40.21c-10.51,0-25.63,2.86-37.94,16.46-8.53,9.42-9.79,22.79-9.9,24.11-.07.58-.16,2.24.98,3.77.63.85,1.86,1.93,4.15,2.21.57.07,1.13.11,1.71.11.88,0,1.63-.08,2.23-.15.41-.05.77-.08,1.05-.08.3,0,.39.02.64.25,2.15,2.01,4.55,3.87,7.51,3.87.19,0,.37,0,.56-.02,1.23-.1,2.25-.54,3.07-.89.7-.3,1.26-.54,1.77-.54.24,0,.49.05.77.16l.35.13c1.23.47,2.5.96,3.87.96,3.86,0,5.26-3.79,5.72-5.04.4-1.08.74-2.23,1.1-3.44,1.85-6.18,3.45-10.25,8.58-10.54.1,0,.2,0,.3,0,1.4,0,2.7.55,3.65,1.54.98,1.02,1.48,2.38,1.43,3.83-.08,1.97-.7,3.89-1.91,5.87-1.03,1.7-2.44,3.25-4.18,4.62-3.55,2.78-7.4,4.22-13.71,6.07-11.73,3.43-24.3,7.72-24.86,15.26-.17,2.28.59,4.22,2.11,5.6-7.82,7.18-11.74,14.3-12.26,22.21-.18,1.54-1.29,12.54,2.13,17.7,3.52,5.32,11.63,5.34,21.01,5.36.84,0,1.69,0,2.54.01.16,0,.31,0,.47,0,.5.86,1.19,2.43,1.73,3.64,2.27,5.13,4.85,10.94,9.42,11.35.18.02.35.02.52.02,4.6,0,6.81-4.99,7.87-9.43,1.55,1.64,3.53,3,5.81,3,1.02,0,2-.27,2.93-.8,1.51-.87,2.3-3,3.92-8.96.05-.18.1-.38.16-.57.48-.04.94-.07,1.37-.1,4.31-.23,14.69-.86,16.86-1.65,2.52-.92,3.08-3.13,3.41-4.45.14-.55.27-1.07.48-1.43.91-1.55,2.8-4.77.33-9.13-.5-.88-.99-1.56-1.39-2.11-.27-.37-.64-.87-.68-1.05h0s.03-.17.25-.58c.93-1.04,3.44-4.21,2.48-7.35-1.45-4.74-6.35-5.29-9.91-5.29s-14.78.54-21.89.89c4.02-3.67,9.09-6.92,14.37-10.32,13.83-8.88,29.5-18.95,30.86-40.16.66-10.25-2.29-18.48-8.75-24.47-6.49-6.02-16.35-9.49-29.29-10.32-1.27-.08-2.54-.12-3.8-.12h0Z"/>
        </g>
        <g>
          <path class="cls-10" d="M466.08,96.59s-3.21,5.66-.31,6.54c1.97.6,4.43-1.56,5.87-3.08.67-.71,1.23-1.39,1.23-1.39,0,0,.44,2.89,4.53,2.2s6.6-5.91,6.6-5.91"/>
          <path class="cls-11" d="M466.08,96.59c-2.84,8.9,2.08,5.93,6.23,1.61,0,0,1.28.35,1.28.35.35.8,1.13,1.32,2.04,1.4,2.2.23,4.17-.9,5.79-2.41.89-.78,1.72-1.66,2.58-2.6-.26,1.25-.83,2.41-1.56,3.49-1.81,2.82-6.24,4.88-9.2,2.45-.6-.58-.99-1.25-1.08-2.13l1.28.35c-1.7,2.26-3.85,4.86-6.96,4.97-4.36-.34-2.25-5.55-.38-7.5h0Z"/>
        </g>
        <path class="cls-16" d="M421.58,141.01s-1.73.76-1.67,3.62,1.93,7.07,4.65,5.6,2.33-10.74-2.98-9.22Z"/>
        <path class="cls-16" d="M429.71,135.64s-1.75.7-1.95,2.75,1.23,4.91,4.01,3.61c2.78-1.3,3.24-7.93-2.05-6.36Z"/>
        <g>
          <path class="cls-10" d="M437.02,109.68s-3.02,7.1,0,8.67c1.92,1,3.73.19,4.8-.52.61-.41,1.27-1.01,1.27-1.01,0,0-.35,6.15,4.68,5.65,5.03-.5,6.6-4.24,6.6-4.24"/>
          <path class="cls-11" d="M437.02,109.68c-.34,2.1-1.8,7.43.93,8.06,2.09.55,4.27-.85,5.72-2.43.08,1.65.12,3.73,1.02,5.1,2.15,3.12,8.05.48,9.68-2.18-1.16,3.46-5.55,5.84-9.1,4.65-2.34-.98-3.04-3.86-2.84-6.09,0,0,1.1.53,1.1.53-.91,1.02-2.13,2.06-3.73,2.37-6.65.71-5.2-6.31-2.78-10h0Z"/>
        </g>
        <ellipse class="cls-16" cx="449.09" cy="118.21" rx="3.23" ry="2.45" transform="translate(-7.47 203.11) rotate(-25.28)"/>
        <ellipse class="cls-16" cx="454" cy="114.51" rx="1.8" ry="1.67" transform="translate(-5.42 204.85) rotate(-25.28)"/>
        <ellipse class="cls-16" cx="478.09" cy="96.82" rx="4.07" ry="2.28" transform="translate(4.44 213.45) rotate(-25.28)"/>
      </g>
      <g>
        <path class="cls-10" d="M525.85,70.05s.17,7.71,3.56,7.91c2.16.12,3.48-1.36,4.16-2.45.39-.63.74-1.44.74-1.44,0,0,2.21,5.75,6.58,3.23,4.38-2.52,4.27-6.58,4.27-6.58"/>
        <path class="cls-11" d="M525.85,70.05c.55,2.05,1.41,7.52,4.16,6.97,2.13-.35,3.54-2.53,4.21-4.57.75,1.47,1.65,3.35,3.02,4.23,3.24,1.96,7.54-2.87,7.93-5.97.37,3.63-2.66,7.61-6.38,7.97-2.53.07-4.36-2.27-5.09-4.39,0,0,1.22.03,1.22.03-.41,1.31-1.09,2.75-2.43,3.69-5.77,3.38-7.33-3.61-6.65-7.97h0Z"/>
      </g>
      <path class="cls-5" d="M469.27,42.74c-13.96-.89-28.65,3.23-39.79,15.55-1.94,2.15-3.48,4.53-4.7,6.92h0c-2.74,4.75-3.57,9.86-4.16,12.72-.59,2.86-1.15,5.16,1.39,6.13,2.53.98,4.85.23,4.85.23l-2.85-1.79c-2.85-1.79-.8-7.04,0-10.56.35-1.53,3.45-8.07,7.73-12.59,5.39-5.67,12.65-9.51,18.79-11.54,16.09-5.34,31.17-2.01,43.05,1.86-5.85-3.88-13.93-6.27-24.29-6.93Z"/>
      <path class="cls-5" d="M524.45,57.87s14.08-2.76,26.85,0c12.77,2.76,18.96,9.54,21.25,12.7,0,0-9.55-7.53-22.56-10.61-13.83-3.28-25.54-2.09-25.54-2.09Z"/>
      <path class="cls-7" d="M414.53,145.34s2.25,6.3,7.47,7.81c5.22,1.51,17.54-1.26,19.88.92s4.02,9.24,7.82,8.61c4.52-.75,6.57-10.88,6.57-10.88,0,0,1.7,6.41,4.62,6.45,5.22.06,8.77-7.29,8.77-7.29l-.57,4.59s-1.47,7.82-3.45,9.72c-1.98,1.9-7.21-1.26-9.01-6.59,0,0,.21,12.18-5.41,13.51s-7.46-6.05-8.38-7.81c-.92-1.76-2.64-6.45-3.27-6.83,0,0-12.78.63-18.31-1.13s-6.78-6.14-6.74-11.08Z"/>
      <path class="cls-7" d="M468.82,153.15s10.43-.13,14.37-.67,6.33-.97,7.17-1.95c0,0,.08,2.16-1.74,3.16-1.82,1.01-20.26,2.06-20.26,2.06l.46-2.6Z"/>
      <path class="cls-16" d="M479.71,140.76s-1.98,2.01-2.2,4.05,4.59,4.68,7.64.44c3.05-4.24-3.49-6.54-5.44-4.49Z"/>
      <path class="cls-16" d="M478.03,134.29s-2.77.88-2.23,3.02,4.46,1.48,4.93-.5-1.5-3.14-2.7-2.51Z"/>
      <path class="cls-7" d="M543.56,154.11c-10.94,1.63-9.68,5.03-15.08,8.8-5.41,3.77-8.55,1.13-10.31-1.51-.95-1.43-5.61-1.34-8.95-3.02-2.83-1.42-4.4-4.68-5.19-5.4,1.07,4.76,2.12,9.23,2.47,10.2.82,2.26,3.46,1.51,5.97,1.57,2.51.06,6.37,6.29,10.29,6.91,7.88,1.26,12.52-11.4,16.75-12.42,7.76-1.87,14.6-4.46,20.46-7.75-5.14.95-10.75,1.76-16.41,2.61Z"/>
      <path class="cls-16" d="M510.92,144.04c-.78.39-2.45,3.83-1.39,6.29,1.26,2.91,7.08,7.22,11.78.68,1.22-1.7,1.5-4.55.59-5.32s-3.07-.33-4.59-.96c-2.76-1.15-4.96-2.18-6.4-.68Z"/>
      <path class="cls-16" d="M520.66,134.76c0,2.44-2.4,3.57-4.84,3.57s-3.99-1.13-3.99-3.57,1.98-4.42,4.42-4.42,4.42,1.98,4.42,4.42Z"/>
      <path class="cls-16" d="M514.73,112.62c0,2.44-2.32,4.15-4.76,4.15s-4.07-1.72-4.07-4.15,1.98-4.42,4.42-4.42,4.42,1.98,4.42,4.42Z"/>
      <path class="cls-16" d="M542.02,74.68c-1.26,1.49-2.83,1.97-3.53,1.37s-.29-2.05.97-3.54,2.86-2.21,3.57-1.61.26,2.29-1.01,3.79Z"/>
      <path class="cls-16" d="M545.47,67.88c-.44,1.05-1.57,1.44-2.42,1.08s-1.11-1.34-.67-2.39c.44-1.05,1.49-1.6,2.35-1.24s1.19,1.5.74,2.55Z"/>
      <path class="cls-17" d="M58.73,50.35s9.33-7.75,32.73-11.51c12.28-1.97,24.42-1.9,32.74-1.24,7.54.6,11.86,1.71,11.86,1.71,0,0,2.21,1.53-.43,3.32s-19.37-2.49-41.77-.39c-13.14,1.23-23.1,5.95-29.87,8.91-3.38,1.48-4.66,1.74-5.37,1.48s-.83-1.05.1-2.27Z"/>
      <path class="cls-17" d="M236.47,83.91s-.41,3.47,1.11,4.31c1.52.84,3.21-1.04,3.44-4.01s1.09-4.5,2.57-5.59c1.04-.77,1.22-3.85-2.97-2.86s-4.14,8.15-4.14,8.15Z"/>
      <path class="cls-17" d="M384.46,71.75s-1.7.6-.65,2.15c1.04,1.55,5.11.98,8.24.49s7.19.93,8.41,3.21c1.21,2.28,5.34,6.05,8.26,4.49s-2.83-6-4.75-7.21-4.17-2.95-10.47-3.89c-3.15-.47-6.23-.44-9.04.77Z"/>
      <path class="cls-17" d="M412.37,84.95c0,1.16-.46,2.52-1.62,2.52s-2.58-1.36-2.58-2.52.94-2.1,2.1-2.1,2.1.94,2.1,2.1Z"/>
    </g>
  </g>
</svg>